<?xml version="1.0" encoding="UTF-8"?><svg xmlns="http://www.w3.org/2000/svg" xmlns:xlink="http://www.w3.org/1999/xlink" width="64px" height="64px" viewBox="0 0 64 64" version="1.1"><title>art</title><defs><path id="path-1" d="M63.833.04H.06V64H63.833V.04z"/></defs><g id="Page-1" stroke="none" stroke-width="1" fill="none" fill-rule="evenodd"><g id="art"><path d="M20.715 19a4 4 0 1 1 0 8 4 4 0 0 1 0-8zM28 42a4 4 0 1 1-8 0 4 4 0 0 1 8 0zm4-28.387a4 4 0 1 1 0 8 4 4 0 0 1 0-8zm9.104 31.491a4 4 0 1 1-8 0 4 4 0 0 1 8 0zm2.107-26.376a4 4 0 1 1 0 8 4 4 0 0 1 0-8zm6.976 16.543a4 4 0 1 1-8 0 4 4 0 0 1 8 0zm-33.625-.459c.376 4.938-1.113 6.6-1.437 9.563-.438 4 8.875 10 17.24 9.621 12.275-.557 21.68-9.708 21.68-21.996 0-12.288-9.757-22-22.045-22-8.545 0-18 5.375-21.083 15.655-1.558 5.195 5.187 3.119 5.645 9.157z" id="Fill-1" fill="#FFFFFE"/><g id="Group-5"><mask id="mask-2" fill="#fff"><use xlink:href="#path-1"/></mask><path d="M20 42a4 4 0 1 0 8 0 4 4 0 0 0-8 0" id="Fill-2" fill="#4C5665" mask="url(#mask-2)"/><path d="M10.917 25.655C14 15.375 23.455 10 32 10c12.288 0 22.045 9.712 22.045 22s-9.405 21.439-21.68 21.996c-8.365.379-17.678-5.621-17.24-9.621.324-2.963 1.813-4.625 1.437-9.563-.458-6.038-7.203-3.962-5.645-9.157zM31.833 64c17.674 0 32-14.327 32-32 0-17.673-14.326-32-32-32-17.673 0-32 14.327-32 32 0 17.673 14.327 32 32 32z" id="Fill-4" fill="#4C5665" mask="url(#mask-2)"/></g><path d="M20.715 27a4 4 0 1 0 0-8 4 4 0 0 0 0 8" id="Fill-6" fill="#4C5665"/><path d="M32 21.613a4 4 0 1 0 0-8 4 4 0 0 0 0 8" id="Fill-7" fill="#4C5665"/><path d="M43.211 26.728a4 4 0 1 0 0-8 4 4 0 0 0 0 8" id="Fill-8" fill="#4C5665"/><path d="M42.187 35.271a4 4 0 1 0 8 0 4 4 0 0 0-8 0" id="Fill-9" fill="#4C5665"/><path d="M33.104 45.104a4 4 0 1 0 8 0 4 4 0 0 0-8 0" id="Fill-10" fill="#4C5665"/></g></g><metadata><rdf:RDF xmlns:rdf="http://www.w3.org/1999/02/22-rdf-syntax-ns#" xmlns:rdfs="http://www.w3.org/2000/01/rdf-schema#" xmlns:dc="http://purl.org/dc/elements/1.1/"><rdf:Description about="https://iconscout.com/legal#licenses" dc:title="art" dc:description="art" dc:publisher="Iconscout" dc:date="2017-09-25" dc:format="image/svg+xml" dc:language="en"><dc:creator><rdf:Bag><rdf:li>Elegant Themes</rdf:li></rdf:Bag></dc:creator></rdf:Description></rdf:RDF></metadata></svg>